<svg xmlns="http://www.w3.org/2000/svg" viewBox="0 0 100 130" role="img" aria-label="Klub der Tausend Tränen">
  <title>Klub der Tausend Tränen — Feder</title>
  <defs>
    <clipPath id="kdt-feather">
      <path d="M50 8 C 58 24, 68 48, 68 75 C 68 100, 60 118, 50 124 C 40 118, 32 100, 32 75 C 32 48, 42 24, 50 8 Z"></path>
    </clipPath>
  </defs>
  
  <path d="M50 8 C 58 24, 68 48, 68 75 C 68 100, 60 118, 50 124 C 40 118, 32 100, 32 75 C 32 48, 42 24, 50 8 Z" fill="#E4B7C6"></path>

  
  <g clip-path="url(#kdt-feather)" fill="none" stroke="#B16E86" stroke-width="1" stroke-linecap="round">
    <path d="M18 22 L 50 14 L 82 22"></path>
    <path d="M18 27 L 50 19 L 82 27"></path>
    <path d="M18 32 L 50 24 L 82 32"></path>
    <path d="M18 37 L 50 29 L 82 37"></path>
    <path d="M18 42 L 50 34 L 82 42"></path>
    <path d="M18 47 L 50 39 L 82 47"></path>
    <path d="M18 52 L 50 44 L 82 52"></path>
    <path d="M18 57 L 50 49 L 82 57"></path>
    <path d="M18 62 L 50 54 L 82 62"></path>
    <path d="M18 67 L 50 59 L 82 67"></path>
    <path d="M18 72 L 50 64 L 82 72"></path>
    <path d="M18 77 L 50 69 L 82 77"></path>
    <path d="M18 82 L 50 74 L 82 82"></path>
    <path d="M18 87 L 50 79 L 82 87"></path>
    <path d="M18 92 L 50 84 L 82 92"></path>
    <path d="M18 97 L 50 89 L 82 97"></path>
    <path d="M18 102 L 50 94 L 82 102"></path>
    <path d="M18 107 L 50 99 L 82 107"></path>
    <path d="M18 112 L 50 104 L 82 112"></path>
    <path d="M18 117 L 50 109 L 82 117"></path>
    <path d="M18 122 L 50 114 L 82 122"></path>
  </g>

  
  <line x1="50" y1="12" x2="50" y2="122" stroke="#6E2E48" stroke-width="1.4" stroke-linecap="round"></line>
</svg>